<svg xmlns="http://www.w3.org/2000/svg" xmlns:svg="http://www.w3.org/2000/svg" width="512.007298" height="502.964923" preserveAspectRatio="xMidYMid meet" version="1.0">
    <metadata>Created by potrace 1.16, written by Peter Selinger 2001-2019</metadata>

    <g class="layer">
        <title>Layer 1</title>
        <g fill="#000000" id="svg_1" transform="matrix(1 0 0 1 0 0) matrix(0.099757 0 0 -0.1 -0.00334062 0)">
            <path d="m1228.22,-195.65c-453,-130 -855,-656 -939,-1230c-14,-99 -7,-263 15,-335c9,-27 16,-53 16,-57c0,-5 -67,-8 -149,-8c-82,0 -156,-3 -165,-6c-14,-6 -16,-132 -16,-1335l0,-1329l435,0l435,0l0,-22c0,-85 48,-151 126,-174c30,-8 54,-20 54,-26c0,-6 -16,-100 -35,-209c-39,-224 -42,-264 -19,-273c9,-3 42,-6 75,-6c53,0 59,2 64,23c4,22 75,454 75,462c0,2 12,5 28,7c26,3 28,7 47,100c11,53 22,99 25,102c9,9 2449,16 2454,7c3,-4 13,-55 22,-113l16,-105l61,19c33,10 62,17 64,15c6,-6 33,-157 62,-342l26,-170l55,-3c80,-5 100,3 100,36c0,16 -18,118 -40,228c-22,109 -39,208 -38,218c2,13 17,23 46,32c72,21 104,61 116,146l7,48l430,0l429,0l-2,1333l-3,1332l-163,3c-151,2 -163,4 -157,20c39,101 50,287 25,432c-38,223 -161,510 -296,691c-144,191 -323,347 -499,434c-163,80 -58,75 -1465,74c-1202,0 -1258,-1 -1322,-19z" fill="#000000" id="svg_2"/>
            <path d="m1654.47,-338.65c160,-29 275,-145 362,-365c101,-254 128,-580 62,-734c-86,-200 -471,-283 -861,-185c-263,66 -410,200 -439,399c-40,284 249,716 568,850c102,43 205,54 308,35z" fill="#059302" id="svg_3"/>
            <path d="m3671.47,-374.65c216,-46 440,-248 568,-514c54,-112 73,-192 74,-305c1,-265 -134,-401 -465,-471c-145,-30 -367,-31 -490,-1c-173,42 -266,108 -310,218c-45,115 -25,359 47,582c70,215 161,370 256,435c88,60 204,80 320,56z" fill="#059302" id="svg_4"/>
            <path d="m683.72,-2038.65c159,-16 3555,-14 3729,1c78,7 227,13 331,13l190,0l0,-1135l0,-1135l-2385,-3l-2385,-2l2,1137c2,626 3,1140 3,1142c0,6 409,-8 515,-18z" fill="#ffffff" id="svg_5" transform="matrix(1 0 0 1 0 0)"/>
            <path d="m497.47,-2351.4c-13,-7 -27,-23 -31,-37c-12,-45 -10,-1523 2,-1559c7,-19 22,-36 36,-42c15,-5 840,-9 2082,-9l2058,0l27,21l26,20l0,785l0,785l-25,24l-24,25l-2063,0c-1624,0 -2068,-3 -2088,-13z" fill="#059302" id="svg_6"/>
            <path d="m4537.47,-3063.65c0,-24 -17,-36 -51,-36c-32,0 -39,3 -39,20c0,17 7,20 45,20c25,0 45,-2 45,-4z" fill="#ffffff" id="svg_7"/>
            <path d="m4527.47,-3170.65c0,-29 -2,-30 -37,-27c-33,3 -38,7 -41,31c-3,26 -1,27 37,27c39,0 41,-1 41,-31z" fill="#ffffff" id="svg_8"/>
            <path d="m4530.47,-3259.65c5,-18 0,-20 -39,-20c-37,0 -44,3 -44,20c0,17 7,20 39,20c30,0 40,-4 44,-20z" fill="#ffffff" id="svg_9"/>
            <path d="m4532.47,-3351.65c0,-10 -3,-18 -7,-18c-5,0 -24,0 -43,0c-30,0 -35,3 -35,23c0,22 3,23 43,18c31,-5 42,-10 42,-23z" fill="#ffffff" id="svg_10"/>
            <path d="m4525.47,-3446.65c3,-21 -1,-23 -37,-23c-37,0 -41,2 -41,26c0,23 3,25 38,22c30,-2 38,-7 40,-25z" fill="#ffffff" id="svg_11"/>
            <path d="m61.76,444.97c0.85,0 1.76,0 2.67,0c0.78,0 1.5,0 2.38,0c0.5,0 2.24,0 2.89,0c0.68,0 1.38,0 2.1,0c0.73,0 1.46,0 3.63,0c0.69,0 1.36,0 2.02,0c0.64,0 1.89,0 2.51,0c0.61,0 2.41,0 3,0c0.59,0 1.72,0 2.26,0c1,0 2.26,0 3.2,0c0.73,0 1.76,-0.1 2.54,0.07c1.04,0.23 1.57,0.82 2.2,1.22c0.96,0.61 1.73,0.68 2.71,0.71c0.79,0.02 1.68,0.14 2.54,0.44c0.7,0.25 1.48,0.61 2.39,0.97c0.5,0.2 1.62,0.6 2.9,0.99c0.69,0.21 1.4,0.4 2.14,0.6c0.76,0.2 1.53,0.4 2.32,0.6c1.59,0.4 2.39,0.6 3.19,0.8c0.78,0.19 1.54,0.38 2.28,0.56c0.71,0.17 1.38,0.33 2.01,0.47c1.58,0.34 2.37,0.49 3.25,0.55c1.06,0.07 1.82,0.01 2.81,0.02c0.92,0.01 1.69,0.11 2.45,0.57c0.63,0.38 1.57,1.19 2.38,1.36c0.87,0.18 1.65,0.53 2.11,0.94c0.61,0.55 1.44,1.13 2.07,1.53c0.99,0.61 1.71,0.89 2.37,1.6c0.66,0.71 0.67,1.45 1.23,2.4c0.38,0.64 1.02,1.14 1.32,2.2c0.22,0.78 0.11,1.8 0.11,2.6c0,1 0,1.8 0,2.8c0,0.8 0,1.6 0,2.6c0,0.8 0,1.8 0,2.6c0,1 0,1.8 0,2.8c0,0.78 0.04,1.87 -0.57,2.57c-0.44,0.5 -1.04,1.02 -1.83,1.83c-0.61,0.63 -1.03,1.09 -1.6,1.93c-0.63,0.94 -0.96,1.62 -1.29,2.25c-0.48,0.93 -1.05,1.75 -1.59,2.29c-0.54,0.54 -1.33,1.33 -1.91,1.91c-0.51,0.51 -1.25,1.29 -1.94,1.93c-0.49,0.46 -1.47,1.13 -2.29,1.25c-0.99,0.14 -1.63,0.06 -2.42,-0.03c-0.7,-0.08 -2.11,-0.37 -2.69,-0.5c-0.63,-0.14 -1.29,-0.3 -1.97,-0.47c-1.43,-0.36 -2.16,-0.55 -3.58,-0.96c-0.69,-0.2 -1.36,-0.4 -2.03,-0.59c-0.65,-0.19 -1.3,-0.39 -2.61,-0.69c-0.66,-0.15 -2.03,-0.39 -2.74,-0.47c-0.72,-0.08 -1.45,-0.13 -2.19,-0.17c-0.73,-0.04 -2.15,-0.07 -2.83,-0.07c-1.27,-0.01 -2.39,0 -2.89,0c-0.88,0 -1.91,0.1 -2.85,-0.01c-0.72,-0.08 -1.91,-0.56 -2.33,-0.7c-0.92,-0.3 -1.39,-0.46 -2.34,-0.73c-1.24,-0.35 -2.17,-0.53 -2.96,-0.57c-1.02,-0.05 -1.8,0.03 -2.78,0c-0.93,-0.04 -1.71,-0.55 -1.79,-1.29c-0.12,-1.03 -0.01,-1.75 -0.01,-2.91c0,-0.66 0,-1.54 0,-2.8c0,-0.53 -0.01,-1.11 0.02,-2.42c0.02,-0.71 0.04,-1.45 0.09,-2.21c0.05,-0.78 0.21,-2.37 0.33,-3.17c0.12,-0.79 0.26,-1.58 0.43,-2.34c0.16,-0.74 0.33,-1.45 0.54,-2.12c0.54,-1.76 0.76,-2.23 1.18,-3c0.5,-0.9 1.14,-1.72 1.29,-2.34c0.19,-0.78 0.11,-1.8 0.11,-2.69l0,-1.05l0,-0.82" fill="none" id="svg_13"/>
        </g>
        <ellipse cx="257.36" cy="22.45" fill="#000000" id="svg_12" rx="136.18" ry="14.71"/>
    </g>
</svg>